<svg class="diagram-root" style="background: #f5f6f6" xmlns="http://www.w3.org/2000/svg" xmlns:xlink="http://www.w3.org/1999/xlink"><style>.diagram-root { font-family: "Helvetica Neue", sans-serif; font-size: 12px; } .t { overflow: visible; } .t-bg { y: 40; fill: #fff;   } .th { fill: #005aa0;   } .tht { fill: #fff; font-size: 14px;  } .tf { fill: #323c46; overflow: visible; } .tf.pk { fill: #005aa0; font-weight: bold; } .tf.fk { font-weight: bold; } .ty { fill: #adb1b5; font-weight: normal; text-anchor: end; } .r { fill: transparent; stroke: #c3c3c3; stroke-width: 1; } .l { stroke: 1; } .i { fill: #c2c7ce; stroke: #c2c7ce; } .i.ix { fill: #afb3b6; stroke: #000; } .fa { fill: transparent; overflow: visible; } .fa .bg.hover { fill: #f7f7f7; } .c { cy: 12; r: 4; stroke: #d2d2dc; fill: #d2d2dc; } .hr { fill: transparent; stroke: #323c46; stroke-opacity: 0.035; stroke-width: 13; } .dc { stroke: #fa5a3c; fill: #fa5a3c; } .x { stroke: white; stroke-width: 1; } .hl .th { fill: #1b9bff; } .hl .tht {  } .fhl .bg { fill: #e7f4ff; } .fhls .bg {  } .r.hl { stroke: #1b9bff; } .dim { opacity: 0.25; }</style><g class="drawing-wrapper" transform="translate(-97.99666666666647, 103.88999999999999) scale(1,1)"><g class="rs"><path d="M 342.5 314.78 m -1, 0 a 1,1 0 1,0 2,0 a 1,1 0 1,0 -2,0 M 342.5 314.78 m -0.5, 0 a 0.5,0.5 0 1,0 1,0 a 0.5,0.5 0 1,0 -1,0  M342.5 314.78 L342.5 314.78 354.5 314.78 M 342.5 320.78 m -1, 0 a 1,1 0 1,0 2,0 a 1,1 0 1,0 -2,0 M 342.5 320.78 m -0.5, 0 a 0.5,0.5 0 1,0 1,0 a 0.5,0.5 0 1,0 -1,0  M342.5 320.78 L342.5 320.78 349.5 314.78 342.5 308.78 M 342.5 308.78 m -1, 0 a 1,1 0 1,0 2,0 a 1,1 0 1,0 -2,0 M 342.5 308.78 m -0.5, 0 a 0.5,0.5 0 1,0 1,0 a 0.5,0.5 0 1,0 -1,0  M354.5 314.78 Q 389.66 314.78, 424.81 161.45 T 495.11 8.11 M 507.11 8.11 m -1, 0 a 1,1 0 1,0 2,0 a 1,1 0 1,0 -2,0 M 507.11 8.11 m -0.5, 0 a 0.5,0.5 0 1,0 1,0 a 0.5,0.5 0 1,0 -1,0  M507.11 8.11 L507.11 8.11 495.11 8.11 M501.11 14.11 L501.11 14.11 501.11 2.1099999999999994" id="h1651051135" class="r"></path><path d="M 279.81 27.11 m -1, 0 a 1,1 0 1,0 2,0 a 1,1 0 1,0 -2,0 M 279.81 27.11 m -0.5, 0 a 0.5,0.5 0 1,0 1,0 a 0.5,0.5 0 1,0 -1,0  M279.81 27.11 L279.81 27.11 291.81 27.11 M 279.81 33.11 m -1, 0 a 1,1 0 1,0 2,0 a 1,1 0 1,0 -2,0 M 279.81 33.11 m -0.5, 0 a 0.5,0.5 0 1,0 1,0 a 0.5,0.5 0 1,0 -1,0  M279.81 33.11 L279.81 33.11 286.81 27.11 279.81 21.11 M 279.81 21.11 m -1, 0 a 1,1 0 1,0 2,0 a 1,1 0 1,0 -2,0 M 279.81 21.11 m -0.5, 0 a 0.5,0.5 0 1,0 1,0 a 0.5,0.5 0 1,0 -1,0  M291.81 27.11 Q 342.64 27.11, 393.46 5.11 T 495.11 -16.89 M 507.11 -16.89 m -1, 0 a 1,1 0 1,0 2,0 a 1,1 0 1,0 -2,0 M 507.11 -16.89 m -0.5, 0 a 0.5,0.5 0 1,0 1,0 a 0.5,0.5 0 1,0 -1,0  M507.11 -16.89 L507.11 -16.89 495.11 -16.89 M501.11 -10.89 L501.11 -10.89 501.11 -22.89" id="h170840122" class="r"></path><path d="M 507.67 328 m -1, 0 a 1,1 0 1,0 2,0 a 1,1 0 1,0 -2,0 M 507.67 328 m -0.5, 0 a 0.5,0.5 0 1,0 1,0 a 0.5,0.5 0 1,0 -1,0  M507.67 328 L507.67 328 495.67 328 M 507.67 334 m -1, 0 a 1,1 0 1,0 2,0 a 1,1 0 1,0 -2,0 M 507.67 334 m -0.5, 0 a 0.5,0.5 0 1,0 1,0 a 0.5,0.5 0 1,0 -1,0  M507.67 334 L507.67 334 500.67 328 507.67 322 M 507.67 322 m -1, 0 a 1,1 0 1,0 2,0 a 1,1 0 1,0 -2,0 M 507.67 322 m -0.5, 0 a 0.5,0.5 0 1,0 1,0 a 0.5,0.5 0 1,0 -1,0  M495.67 328 Q 460.38 328, 425.09 321.39 T 354.5 314.78 M 342.5 314.78 m -1, 0 a 1,1 0 1,0 2,0 a 1,1 0 1,0 -2,0 M 342.5 314.78 m -0.5, 0 a 0.5,0.5 0 1,0 1,0 a 0.5,0.5 0 1,0 -1,0  M342.5 314.78 L342.5 314.78 354.5 314.78 M348.5 320.78 L348.5 320.78 348.5 308.78" id="h3936989733" class="r"></path><path d="M 507.67 353 m -1, 0 a 1,1 0 1,0 2,0 a 1,1 0 1,0 -2,0 M 507.67 353 m -0.5, 0 a 0.5,0.5 0 1,0 1,0 a 0.5,0.5 0 1,0 -1,0  M507.67 353 L507.67 353 495.67 353 M 507.67 359 m -1, 0 a 1,1 0 1,0 2,0 a 1,1 0 1,0 -2,0 M 507.67 359 m -0.5, 0 a 0.5,0.5 0 1,0 1,0 a 0.5,0.5 0 1,0 -1,0  M507.67 359 L507.67 359 500.67 353 507.67 347 M 507.67 347 m -1, 0 a 1,1 0 1,0 2,0 a 1,1 0 1,0 -2,0 M 507.67 347 m -0.5, 0 a 0.5,0.5 0 1,0 1,0 a 0.5,0.5 0 1,0 -1,0  M495.67 353 Q 444.71 353, 393.74 190.06 T 291.81 27.11 M 279.81 27.11 m -1, 0 a 1,1 0 1,0 2,0 a 1,1 0 1,0 -2,0 M 279.81 27.11 m -0.5, 0 a 0.5,0.5 0 1,0 1,0 a 0.5,0.5 0 1,0 -1,0  M279.81 27.11 L279.81 27.11 291.81 27.11 M285.81 33.11 L285.81 33.11 285.81 21.11" id="h634767023" class="r"></path><path d="M 202 497.22 m -1, 0 a 1,1 0 1,0 2,0 a 1,1 0 1,0 -2,0 M 202 497.22 m -0.5, 0 a 0.5,0.5 0 1,0 1,0 a 0.5,0.5 0 1,0 -1,0  M202 497.22 L202 497.22 190 497.22 M 202 503.22 m -1, 0 a 1,1 0 1,0 2,0 a 1,1 0 1,0 -2,0 M 202 503.22 m -0.5, 0 a 0.5,0.5 0 1,0 1,0 a 0.5,0.5 0 1,0 -1,0  M202 503.22 L202 503.22 195 497.22 202 491.22 M 202 491.22 m -1, 0 a 1,1 0 1,0 2,0 a 1,1 0 1,0 -2,0 M 202 491.22 m -0.5, 0 a 0.5,0.5 0 1,0 1,0 a 0.5,0.5 0 1,0 -1,0  M190 497.22 C 8.799999999999983 497.22, 58 27.11, 108 27.11 M 120 27.11 m -1, 0 a 1,1 0 1,0 2,0 a 1,1 0 1,0 -2,0 M 120 27.11 m -0.5, 0 a 0.5,0.5 0 1,0 1,0 a 0.5,0.5 0 1,0 -1,0  M120 27.11 L120 27.11 108 27.11 M114 33.11 L114 33.11 114 21.11" id="h1720119466" class="r"></path><path d="M 721.23 134 m -1, 0 a 1,1 0 1,0 2,0 a 1,1 0 1,0 -2,0 M 721.23 134 m -0.5, 0 a 0.5,0.5 0 1,0 1,0 a 0.5,0.5 0 1,0 -1,0  M721.23 134 L721.23 134 709.23 134 M 721.23 140 m -1, 0 a 1,1 0 1,0 2,0 a 1,1 0 1,0 -2,0 M 721.23 140 m -0.5, 0 a 0.5,0.5 0 1,0 1,0 a 0.5,0.5 0 1,0 -1,0  M721.23 140 L721.23 140 714.23 134 721.23 128 M 721.23 128 m -1, 0 a 1,1 0 1,0 2,0 a 1,1 0 1,0 -2,0 M 721.23 128 m -0.5, 0 a 0.5,0.5 0 1,0 1,0 a 0.5,0.5 0 1,0 -1,0  M709.23 134 Q 604.88 134, 500.52 80.56 T 291.81 27.11 M 279.81 27.11 m -1, 0 a 1,1 0 1,0 2,0 a 1,1 0 1,0 -2,0 M 279.81 27.11 m -0.5, 0 a 0.5,0.5 0 1,0 1,0 a 0.5,0.5 0 1,0 -1,0  M279.81 27.11 L279.81 27.11 291.81 27.11 M285.81 33.11 L285.81 33.11 285.81 21.11" id="h221257298" class="r"></path></g><g class="hrs"></g><g class="ts"><svg width="201.17" height="100" x="141.33" y="257.78" id="h3708248841" class="t"><rect height="40" width="201.17" class="th"></rect><text x="13" y="25" class="tht">Departments</text><rect height="60" width="201.17" class="t-bg"></rect><text x="13" y="61" class="tf pk">dept_no<tspan x="188.17" class="ty">VARCHAR(4)</tspan></text><path d="M7,14A2,2 0 0,1 5,12A2,2 0 0,1 7,10A2,2 0 0,1 9,12A2,2 0 0,1 7,14M12.65,10C11.83,7.67 9.61,6 7, 6A6, 6 0 0, 0 1, 12A6, 6 0 0, 0 7, 18C9.61, 18 11.83, 16.33 12.65, 14H17V18H21V14H23V10H12.65Z" class="i pk" transform="translate(95.71882812499999, 48) scale(0.65)"></path><text x="13" y="86" class="tf">dept_name<tspan x="188.17" class="ty">VARCHAR(40)</tspan></text><path d="M22,18V22H18V19H15V16H12L9.74,13.74C9.19,13.91 8.61,14 8,14A6,6 0 0,1 2,8A6,6 0 0,1 8,2A6,6 0 0,1 14,8C14,8.61 13.91, 9.19 13.74, 9.74L22, 18M7, 5A2, 2 0 0, 0 5, 7A2, 2 0 0, 0 7, 9A2, 2 0 0, 0 9, 7A2, 2 0 0, 0 7, 5Z" class="i uq" transform="translate(93.04499999999999, 75.5) scale(0.5)"></path></svg><svg width="159.81" height="175" x="120" y="-29.89" id="h3299212598" class="t"><rect height="40" width="159.81" class="th"></rect><text x="13" y="25" class="tht">Employees</text><rect height="135" width="159.81" class="t-bg"></rect><text x="13" y="61" class="tf pk">emp_no<tspan x="146.81" class="ty">int</tspan></text><path d="M7,14A2,2 0 0,1 5,12A2,2 0 0,1 7,10A2,2 0 0,1 9,12A2,2 0 0,1 7,14M12.65,10C11.83,7.67 9.61,6 7, 6A6, 6 0 0, 0 1, 12A6, 6 0 0, 0 7, 18C9.61, 18 11.83, 16.33 12.65, 14H17V18H21V14H23V10H12.65Z" class="i pk" transform="translate(114.136171875, 48) scale(0.65)"></path><text x="13" y="86" class="tf">first_name<tspan x="146.81" class="ty">VARCHAR</tspan></text><text x="13" y="111" class="tf">last_name<tspan x="146.81" class="ty">VARCHAR</tspan></text><text x="13" y="136" class="tf">gender<tspan x="146.81" class="ty">VARCHAR</tspan></text><text x="13" y="161" class="tf">hire_date<tspan x="146.81" class="ty">Date</tspan></text></svg><svg width="181.83" height="150" x="507.67" y="271" id="h1676682957" class="t"><rect height="40" width="181.83" class="th"></rect><text x="13" y="25" class="tht">dept_manager</text><rect height="110" width="181.83" class="t-bg"></rect><text x="13" y="61" class="tf pk">dept_no<tspan x="168.83" class="ty">VARCHAR(4)</tspan></text><path d="M7,14A2,2 0 0,1 5,12A2,2 0 0,1 7,10A2,2 0 0,1 9,12A2,2 0 0,1 7,14M12.65,10C11.83,7.67 9.61,6 7, 6A6, 6 0 0, 0 1, 12A6, 6 0 0, 0 7, 18C9.61, 18 11.83, 16.33 12.65, 14H17V18H21V14H23V10H12.65Z" class="i pk" transform="translate(76.37882812500001, 48) scale(0.65)"></path><text x="13" y="86" class="tf pk">emp_no<tspan x="168.83" class="ty">INT</tspan></text><path d="M7,14A2,2 0 0,1 5,12A2,2 0 0,1 7,10A2,2 0 0,1 9,12A2,2 0 0,1 7,14M12.65,10C11.83,7.67 9.61,6 7, 6A6, 6 0 0, 0 1, 12A6, 6 0 0, 0 7, 18C9.61, 18 11.83, 16.33 12.65, 14H17V18H21V14H23V10H12.65Z" class="i pk" transform="translate(129.499921875, 73) scale(0.65)"></path><text x="13" y="111" class="tf">from_date<tspan x="168.83" class="ty">DATE</tspan></text><text x="13" y="136" class="tf">to_date<tspan x="168.83" class="ty">DATE</tspan></text></svg><svg width="181.83" height="150" x="507.11" y="-73.89" id="h1090417462" class="t"><rect height="40" width="181.83" class="th"></rect><text x="13" y="25" class="tht">dept_emp</text><rect height="110" width="181.83" class="t-bg"></rect><text x="13" y="61" class="tf pk">emp_no<tspan x="168.83" class="ty">int</tspan></text><path d="M7,14A2,2 0 0,1 5,12A2,2 0 0,1 7,10A2,2 0 0,1 9,12A2,2 0 0,1 7,14M12.65,10C11.83,7.67 9.61,6 7, 6A6, 6 0 0, 0 1, 12A6, 6 0 0, 0 7, 18C9.61, 18 11.83, 16.33 12.65, 14H17V18H21V14H23V10H12.65Z" class="i pk" transform="translate(136.156171875, 48) scale(0.65)"></path><text x="13" y="86" class="tf pk">dept_no<tspan x="168.83" class="ty">VARCHAR(4)</tspan></text><path d="M7,14A2,2 0 0,1 5,12A2,2 0 0,1 7,10A2,2 0 0,1 9,12A2,2 0 0,1 7,14M12.65,10C11.83,7.67 9.61,6 7, 6A6, 6 0 0, 0 1, 12A6, 6 0 0, 0 7, 18C9.61, 18 11.83, 16.33 12.65, 14H17V18H21V14H23V10H12.65Z" class="i pk" transform="translate(76.37882812500001, 73) scale(0.65)"></path><text x="13" y="111" class="tf">from_date<tspan x="168.83" class="ty">DATE</tspan></text><text x="13" y="136" class="tf">to_date<tspan x="168.83" class="ty">DATE</tspan></text></svg><svg width="163.8" height="150" x="202" y="440.22" id="h311790747" class="t"><rect height="40" width="163.8" class="th"></rect><text x="13" y="25" class="tht">titles</text><rect height="110" width="163.8" class="t-bg"></rect><text x="13" y="61" class="tf pk">emp_no<tspan x="150.8" class="ty">INT</tspan></text><path d="M7,14A2,2 0 0,1 5,12A2,2 0 0,1 7,10A2,2 0 0,1 9,12A2,2 0 0,1 7,14M12.65,10C11.83,7.67 9.61,6 7, 6A6, 6 0 0, 0 1, 12A6, 6 0 0, 0 7, 18C9.61, 18 11.83, 16.33 12.65, 14H17V18H21V14H23V10H12.65Z" class="i pk" transform="translate(111.46992187500001, 48) scale(0.65)"></path><text x="13" y="86" class="tf pk">title<tspan x="150.8" class="ty">VARCHAR(50)</tspan></text><path d="M7,14A2,2 0 0,1 5,12A2,2 0 0,1 7,10A2,2 0 0,1 9,12A2,2 0 0,1 7,14M12.65,10C11.83,7.67 9.61,6 7, 6A6, 6 0 0, 0 1, 12A6, 6 0 0, 0 7, 18C9.61, 18 11.83, 16.33 12.65, 14H17V18H21V14H23V10H12.65Z" class="i pk" transform="translate(51.67500000000001, 73) scale(0.65)"></path><text x="13" y="111" class="tf pk">from_date<tspan x="150.8" class="ty">DATE</tspan></text><path d="M7,14A2,2 0 0,1 5,12A2,2 0 0,1 7,10A2,2 0 0,1 9,12A2,2 0 0,1 7,14M12.65,10C11.83,7.67 9.61,6 7, 6A6, 6 0 0, 0 1, 12A6, 6 0 0, 0 7, 18C9.61, 18 11.83, 16.33 12.65, 14H17V18H21V14H23V10H12.65Z" class="i pk" transform="translate(99.68671875000001, 98) scale(0.65)"></path><text x="13" y="136" class="tf">to_date<tspan x="150.8" class="ty">DATE</tspan></text></svg><svg width="151.14" height="150" x="721.23" y="77" id="h3858243705" class="t"><rect height="40" width="151.14" class="th"></rect><text x="13" y="25" class="tht">Salaries</text><rect height="110" width="151.14" class="t-bg"></rect><text x="13" y="61" class="tf pk">emp_no<tspan x="138.14" class="ty">INT</tspan></text><path d="M7,14A2,2 0 0,1 5,12A2,2 0 0,1 7,10A2,2 0 0,1 9,12A2,2 0 0,1 7,14M12.65,10C11.83,7.67 9.61,6 7, 6A6, 6 0 0, 0 1, 12A6, 6 0 0, 0 7, 18C9.61, 18 11.83, 16.33 12.65, 14H17V18H21V14H23V10H12.65Z" class="i pk" transform="translate(98.80992187499999, 48) scale(0.65)"></path><text x="13" y="86" class="tf">salary<tspan x="138.14" class="ty">INT</tspan></text><text x="13" y="111" class="tf pk">from_date<tspan x="138.14" class="ty">DATE</tspan></text><path d="M7,14A2,2 0 0,1 5,12A2,2 0 0,1 7,10A2,2 0 0,1 9,12A2,2 0 0,1 7,14M12.65,10C11.83,7.67 9.61,6 7, 6A6, 6 0 0, 0 1, 12A6, 6 0 0, 0 7, 18C9.61, 18 11.83, 16.33 12.65, 14H17V18H21V14H23V10H12.65Z" class="i pk" transform="translate(87.02671874999999, 98) scale(0.65)"></path><text x="13" y="136" class="tf">to_date<tspan x="138.14" class="ty">DATE</tspan></text></svg></g></g><text class="qdbd-link" x="10" y="20">www.quickdatabasediagrams.com</text></svg>